<?xml version="1.0" encoding="UTF-8"?>
<svg version="1.1" xmlns="http://www.w3.org/2000/svg" width="19" height="18">
<path d="M0 0 C6.27 0 12.54 0 19 0 C19 5.94 19 11.88 19 18 C12.73 18 6.46 18 0 18 C0 12.06 0 6.12 0 0 Z " fill="#D5CDFE" transform="translate(0,0)"/>
<path d="M0 0 C6.27 0 12.54 0 19 0 C19 3.3 19 6.6 19 10 C13.125 6.125 13.125 6.125 12 5 C9.67182036 4.63239269 7.3381615 4.29758419 5 4 C3.95023036 7.14930893 3.89868405 9.38814456 3.9375 12.6875 C3.94652344 13.68136719 3.95554688 14.67523438 3.96484375 15.69921875 C3.97644531 16.45847656 3.98804688 17.21773437 4 18 C2.68 18 1.36 18 0 18 C0 12.06 0 6.12 0 0 Z " fill="#FEFEFD" transform="translate(0,0)"/>
<path d="M0 0 C3.4375 -0.4375 3.4375 -0.4375 7 0 C7.99 1.32 8.98 2.64 10 4 C6.04 5.32 2.08 6.64 -2 8 C-2 3 -2 3 0 0 Z " fill="#F3B33F" transform="translate(5,4)"/>
<path d="M0 0 C0.99 0.66 1.98 1.32 3 2 C3.40843923 4.71203652 3.13336867 7.2437142 3 10 C1.35 9.67 -0.3 9.34 -2 9 C-2 6.36 -2 3.72 -2 1 C-1.34 0.67 -0.68 0.34 0 0 Z " fill="#E4DFFF" transform="translate(16,8)"/>
<path d="M0 0 C1.98 0 3.96 0 6 0 C6.33 1.32 6.66 2.64 7 4 C5.02 4 3.04 4 1 4 C0.67 2.68 0.34 1.36 0 0 Z " fill="#E0D9FF" transform="translate(3,12)"/>
<path d="M0 0 C0.66 0.33 1.32 0.66 2 1 C1.01 2.485 1.01 2.485 0 4 C-3.625 4.1875 -3.625 4.1875 -7 4 C-4.61426621 2.10786631 -2.92824652 0.97608217 0 0 Z " fill="#CAC1EB" transform="translate(11,8)"/>
</svg>
